<?xml version="1.0" standalone="no"?>
<!DOCTYPE svg PUBLIC "-//W3C//DTD SVG 20010904//EN"
 "http://www.w3.org/TR/2001/REC-SVG-20010904/DTD/svg10.dtd">
<svg version="1.0" xmlns="http://www.w3.org/2000/svg"
 width="1280.000000pt" height="640.000000pt" viewBox="0 0 1280.000000 640.000000"
 preserveAspectRatio="xMidYMid meet">
<metadata>
Created by potrace 1.15, written by Peter Selinger 2001-2017
</metadata>
<g transform="translate(0.000000,640.000000) scale(0.100000,-0.100000)"
fill="#000000" stroke="none">
<path d="M7275 5523 c-704 -359 -1343 -583 -2005 -703 -522 -95 -717 -170
-1190 -461 -460 -284 -580 -344 -869 -439 -159 -53 -525 -158 -831 -240 -1088
-290 -1226 -339 -1734 -614 -289 -157 -378 -194 -593 -246 -44 -11 -58 -34
-25 -44 13 -4 685 -187 1082 -296 36 -9 119 -32 185 -50 66 -18 149 -41 185
-50 36 -10 315 -86 620 -170 305 -84 584 -160 620 -170 36 -9 119 -32 185 -50
66 -18 149 -41 185 -50 36 -10 315 -86 620 -170 305 -84 584 -160 620 -170 36
-9 119 -32 185 -50 66 -18 149 -41 185 -50 36 -10 315 -86 620 -170 305 -84
584 -160 620 -170 115 -31 292 -79 400 -109 58 -15 275 -75 482 -131 l377
-103 188 125 c845 564 1449 1092 1729 1513 30 44 91 163 137 265 141 312 246
480 397 630 106 107 200 173 334 235 144 66 357 147 401 153 41 4 41 4 70 -53
65 -125 132 -143 270 -71 104 55 205 137 470 380 205 190 252 226 367 283 226
113 801 521 1047 742 85 76 191 206 191 232 0 13 -13 13 -87 5 -133 -15 -1900
-13 -2253 2 -917 39 -1692 97 -2155 162 -279 39 -370 53 -445 66 -47 8 -107
19 -135 24 -27 5 -112 22 -187 39 -76 17 -141 31 -145 30 -5 0 -57 -25 -118
-56z"/>
</g>
</svg>
