<?xml version="1.0" standalone="no"?>
<!DOCTYPE svg PUBLIC "-//W3C//DTD SVG 20010904//EN"
 "http://www.w3.org/TR/2001/REC-SVG-20010904/DTD/svg10.dtd">
<svg version="1.0" xmlns="http://www.w3.org/2000/svg"
 width="1280.000000pt" height="1034.000000pt" viewBox="0 0 1280.000000 1034.000000"
 preserveAspectRatio="xMidYMid meet">
<metadata>
Created by potrace 1.15, written by Peter Selinger 2001-2017
</metadata>
<g transform="translate(0.000000,1034.000000) scale(0.100000,-0.100000)"
fill="#000000" stroke="none">
<path d="M6054 10258 c-54 -45 -304 -284 -554 -532 -251 -248 -532 -525 -626
-616 -189 -183 -232 -240 -338 -450 -57 -113 -98 -210 -169 -402 -18 -49 -86
-153 -259 -400 -339 -481 -379 -543 -486 -754 -34 -66 -91 -164 -128 -219
-136 -201 -164 -314 -269 -1060 -49 -352 -59 -397 -165 -745 -110 -362 -134
-461 -171 -710 -30 -200 -37 -635 -14 -865 32 -317 17 -592 -42 -779 -53 -169
-187 -395 -314 -528 -37 -40 -67 -72 -66 -73 1 0 18 -8 38 -18 60 -31 197
-157 344 -317 111 -122 158 -165 230 -212 236 -155 457 -228 1000 -329 131
-25 336 -47 445 -48 107 -2 255 -14 325 -27 61 -11 164 -49 320 -116 325 -141
412 -168 640 -194 109 -13 187 -15 355 -9 471 14 727 24 760 30 19 3 73 12
120 20 47 8 167 32 268 55 101 22 200 43 220 46 20 3 46 8 57 11 43 13 246 30
370 32 425 6 614 73 1025 367 247 176 722 490 1268 838 l72 46 0 179 c0 330
-41 607 -141 961 -66 234 -96 407 -170 980 -6 47 -22 141 -35 210 -44 221 -73
563 -75 878 -1 81 -4 184 -7 228 l-7 82 -85 97 c-160 182 -152 169 -361 602
-28 56 -85 155 -129 221 -82 125 -325 451 -344 464 -6 4 -40 8 -77 8 -84 0
-145 -29 -220 -108 -34 -35 -85 -73 -126 -95 -69 -36 -202 -79 -278 -90 l-40
-6 -44 132 c-83 250 -194 486 -357 762 -180 303 -251 497 -299 820 -9 61 -22
142 -30 180 -8 39 -23 122 -35 185 -88 475 -189 638 -505 810 -147 80 -218
132 -325 234 -113 110 -223 187 -367 260 -50 25 -93 46 -95 46 -3 0 -49 -37
-104 -82z"/>
</g>
</svg>
