<svg width="859" height="567" viewBox="0 0 859 567" fill="none" xmlns="http://www.w3.org/2000/svg">
<path d="M192.25 68.3925C192.381 67.8634 193.043 67.6841 193.429 68.0696L197.786 72.4267L201.763 71.764L202.426 67.7866L198.069 63.4296C197.681 63.0417 197.868 62.3808 198.401 62.2484C201.177 61.5605 204.234 62.3017 206.403 64.4708C208.726 66.7935 209.365 70.1602 208.399 73.0958L220.902 85.5991C222.366 87.0633 222.366 89.4376 220.902 90.9018C219.438 92.3661 217.063 92.3661 215.599 90.9018L203.106 78.4091C200.17 79.3882 196.809 78.7419 194.471 76.404C192.299 74.2319 191.559 71.1704 192.25 68.3925ZM218.25 89.6561C219.026 89.6561 219.656 89.0262 219.656 88.2499C219.656 87.4729 219.026 86.8436 218.25 86.8436C217.473 86.8436 216.844 87.4729 216.844 88.2499C216.844 89.0262 217.473 89.6561 218.25 89.6561Z" fill="black"/>
<g clip-path="url(#clip0)">
<path d="M106.418 63.4195C105.469 64.1985 101.074 68.3359 96.6796 72.6292C92.2675 76.9224 87.3281 81.7177 85.6757 83.293C82.3535 86.461 81.5976 87.4477 79.7343 91.0831C78.7324 93.0393 78.0117 94.7185 76.7636 98.0423C76.4472 98.8906 75.2519 100.691 72.2109 104.967C66.2519 113.294 65.5488 114.367 63.6679 118.02C63.0703 119.162 62.0683 120.859 61.4179 121.811C59.0273 125.29 58.5351 127.247 56.6894 140.161C55.8281 146.255 55.6523 147.034 53.789 153.058C51.8554 159.325 51.4335 161.039 50.7831 165.349C50.2558 168.811 50.1328 176.342 50.537 180.323C51.0995 185.811 50.8359 190.572 49.7988 193.809C48.8671 196.735 46.5117 200.647 44.2792 202.949C43.6288 203.642 43.1015 204.196 43.1191 204.213C43.1367 204.213 43.4355 204.352 43.787 204.525C44.8417 205.061 47.2499 207.243 49.8339 210.013C51.7851 212.125 52.6113 212.869 53.8769 213.683C58.0253 216.366 61.9101 217.63 71.455 219.378C73.7578 219.811 77.3613 220.192 79.2773 220.209C81.1581 220.244 83.7597 220.451 84.9902 220.676C86.0624 220.867 87.873 221.525 90.6152 222.684C96.3281 225.125 97.8574 225.593 101.865 226.043C103.781 226.268 105.152 226.303 108.105 226.199C116.385 225.956 120.885 225.783 121.465 225.679C121.799 225.627 122.748 225.472 123.574 225.333C124.4 225.195 126.51 224.779 128.285 224.381C130.06 224 131.801 223.637 132.152 223.585C132.504 223.533 132.961 223.446 133.154 223.394C133.91 223.169 137.478 222.875 139.658 222.84C147.129 222.736 150.451 221.577 157.676 216.487C162.018 213.44 170.367 208.004 179.965 201.98L181.23 201.184V198.085C181.23 192.372 180.51 187.577 178.752 181.449C177.592 177.398 177.064 174.403 175.764 164.484C175.658 163.67 175.377 162.043 175.148 160.848C174.375 157.022 173.865 151.102 173.83 145.649C173.812 144.246 173.76 142.463 173.707 141.702L173.584 140.282L172.09 138.603C169.277 135.452 169.418 135.677 165.744 128.181C165.252 127.212 164.25 125.498 163.477 124.356C162.035 122.192 157.764 116.548 157.43 116.323C157.324 116.254 156.727 116.185 156.076 116.185C154.6 116.185 153.527 116.687 152.209 118.054C151.611 118.66 150.715 119.318 149.994 119.699C148.781 120.322 146.443 121.066 145.107 121.257L144.404 121.361L143.631 119.076C142.172 114.748 140.221 110.662 137.355 105.884C134.191 100.639 132.943 97.2806 132.1 91.689C131.941 90.633 131.713 89.2308 131.572 88.573C131.432 87.8978 131.168 86.461 130.957 85.3704C129.41 77.1474 127.635 74.3257 122.08 71.3481C119.496 69.9632 118.248 69.063 116.367 67.2972C114.381 65.393 112.447 64.06 109.916 62.7963C109.037 62.3635 108.281 62 108.246 62C108.193 62 107.385 62.6405 106.418 63.4195Z" fill="black"/>
</g>
<path d="M1.77168 93.6593H6.87812C8.78242 93.6593 10.3146 94.1925 11.4748 95.2589C12.676 96.3605 13.2766 97.8341 13.2766 99.6798C13.2766 101.631 12.6613 103.193 11.4309 104.364C10.218 105.525 8.61836 106.105 6.63203 106.105H1.77168V93.6593ZM6.85176 104.628C8.31074 104.628 9.46211 104.189 10.3059 103.31C11.1379 102.443 11.5539 101.268 11.5539 99.7853C11.5539 98.3556 11.0939 97.2189 10.174 96.3751C9.27754 95.549 8.09394 95.1359 6.62324 95.1359H3.39766V104.628H6.85176ZM23.3734 104.98C22.3012 105.847 21.1732 106.28 19.9896 106.28C19.1635 106.28 18.4691 106.064 17.9066 105.63C17.3031 105.161 17.0014 104.549 17.0014 103.793C17.0014 102.234 18.0385 101.194 20.1127 100.673C20.9506 100.462 21.9555 100.345 23.1273 100.321C23.0922 99.3663 22.6264 98.8038 21.7299 98.6339C21.4369 98.5753 21.1615 98.546 20.9037 98.546C20.6459 98.546 20.4174 98.5577 20.2182 98.5812C20.0189 98.6046 19.8139 98.6368 19.6029 98.6779C19.14 98.7657 18.7475 98.8741 18.4252 99.0031L17.9594 97.755C18.7797 97.3448 19.7699 97.1398 20.9301 97.1398C22.7406 97.1398 23.933 97.7169 24.5072 98.8712C24.7006 99.2697 24.7973 99.7443 24.7973 100.295V103.099C24.7973 103.696 24.8412 104.095 24.9291 104.294C25.0873 104.675 25.3656 104.918 25.7641 105.024L25.518 106.105C24.4223 106.234 23.7074 105.859 23.3734 104.98ZM20.2094 102.053C19.6645 102.258 19.2719 102.486 19.0316 102.738C18.7914 102.984 18.6713 103.251 18.6713 103.538C18.6713 103.825 18.7123 104.045 18.7943 104.197C18.8764 104.344 18.9848 104.467 19.1195 104.567C19.3949 104.772 19.7172 104.874 20.0863 104.874C20.4555 104.874 20.7865 104.836 21.0795 104.76C21.3783 104.678 21.6537 104.572 21.9057 104.443C22.3979 104.197 22.8051 103.893 23.1273 103.529V101.631C21.7328 101.701 20.7602 101.842 20.2094 102.053ZM29.8316 98.6691H28.8912V97.5792L31.0533 95.9532H31.5016V97.3156H34.0152V98.6691H31.5016V102.22C31.5016 103.216 31.6275 103.896 31.8795 104.259C32.1314 104.616 32.6236 104.836 33.3561 104.918L33.1012 106.105C31.3434 106.327 30.3033 105.633 29.9811 104.022C29.8814 103.541 29.8316 103.023 29.8316 102.466V98.6691ZM43.6375 104.98C42.5652 105.847 41.4373 106.28 40.2537 106.28C39.4275 106.28 38.7332 106.064 38.1707 105.63C37.5672 105.161 37.2654 104.549 37.2654 103.793C37.2654 102.234 38.3025 101.194 40.3768 100.673C41.2146 100.462 42.2195 100.345 43.3914 100.321C43.3563 99.3663 42.8904 98.8038 41.9939 98.6339C41.701 98.5753 41.4256 98.546 41.1678 98.546C40.91 98.546 40.6814 98.5577 40.4822 98.5812C40.283 98.6046 40.0779 98.6368 39.867 98.6779C39.4041 98.7657 39.0115 98.8741 38.6893 99.0031L38.2234 97.755C39.0438 97.3448 40.034 97.1398 41.1941 97.1398C43.0047 97.1398 44.1971 97.7169 44.7713 98.8712C44.9646 99.2697 45.0613 99.7443 45.0613 100.295V103.099C45.0613 103.696 45.1053 104.095 45.1932 104.294C45.3514 104.675 45.6297 104.918 46.0281 105.024L45.782 106.105C44.6863 106.234 43.9715 105.859 43.6375 104.98ZM40.4734 102.053C39.9285 102.258 39.5359 102.486 39.2957 102.738C39.0555 102.984 38.9354 103.251 38.9354 103.538C38.9354 103.825 38.9764 104.045 39.0584 104.197C39.1404 104.344 39.2488 104.467 39.3836 104.567C39.659 104.772 39.9813 104.874 40.3504 104.874C40.7195 104.874 41.0506 104.836 41.3436 104.76C41.6424 104.678 41.9178 104.572 42.1697 104.443C42.6619 104.197 43.0691 103.893 43.3914 103.529V101.631C41.9969 101.701 41.0242 101.842 40.4734 102.053Z" fill="black"/>
<path d="M40.715 63.211L39.3399 61.6695C38.9601 61.2437 38.3446 61.2437 37.9648 61.6695L37.2776 62.4399L35.5215 60.4712C35.8636 59.0196 35.5434 57.4127 34.528 56.2744L31.7784 53.1921C27.9819 48.936 21.8258 48.936 18.0287 53.1921L23.5285 56.2744V57.5517C23.5285 58.7076 23.938 59.8166 24.6678 60.6341L27.6537 63.9814C28.6691 65.1197 30.1025 65.4787 31.3974 65.0952L33.1535 67.0638L32.4663 67.8342C32.0865 68.26 32.0865 68.95 32.4663 69.3758L33.8414 70.9173C34.2211 71.343 34.8367 71.343 35.2165 70.9173L40.7162 64.7518C41.0948 64.3268 41.0948 63.6367 40.715 63.211ZM23.2927 62.1756C23.0679 61.9235 22.8771 61.6449 22.6942 61.3616L7.19321 77.5855C5.63947 79.2121 5.59754 81.958 7.10024 83.6433C8.60294 85.3285 11.053 85.2815 12.504 83.5391L26.9738 66.164C26.7332 65.9657 26.4938 65.7641 26.2786 65.523L23.2927 62.1756Z" fill="black"/>
<path d="M166.716 98.5547H168.386V104.751L174.846 98.5547H176.946L170.179 105.006L177.236 111H174.67L168.386 105.507V111H166.716V98.5547ZM182.385 103.081C183.305 102.384 184.359 102.035 185.549 102.035C188.221 102.035 189.557 103.503 189.557 106.438V111H187.887V106.544C187.887 105.53 187.711 104.777 187.359 104.285C186.967 103.723 186.325 103.441 185.435 103.441C184.479 103.441 183.68 103.676 183.035 104.145C182.824 104.291 182.654 104.461 182.525 104.654V111H180.855V102.211H182.13L182.385 103.081ZM193.633 106.685C193.633 106.017 193.765 105.398 194.029 104.83C194.292 104.262 194.65 103.77 195.101 103.354C196.056 102.475 197.204 102.035 198.546 102.035C199.9 102.035 201.028 102.454 201.93 103.292C202.844 104.142 203.301 105.234 203.301 106.57C203.301 107.877 202.812 108.976 201.833 109.866C200.884 110.739 199.736 111.176 198.388 111.176C197.017 111.176 195.886 110.76 194.995 109.928C194.087 109.084 193.633 108.003 193.633 106.685ZM195.303 106.588C195.303 107.045 195.385 107.47 195.549 107.862C195.713 108.249 195.939 108.586 196.226 108.873C196.835 109.471 197.609 109.77 198.546 109.77C199.419 109.77 200.152 109.471 200.743 108.873C201.335 108.287 201.631 107.552 201.631 106.667C201.631 105.741 201.323 104.971 200.708 104.355C200.099 103.746 199.325 103.441 198.388 103.441C197.515 103.441 196.782 103.743 196.191 104.347C195.599 104.944 195.303 105.691 195.303 106.588ZM206.481 102.211H208.142L209.337 106.017C209.419 106.269 209.504 106.559 209.592 106.887L210.093 108.864H210.19L210.691 106.975C210.779 106.652 210.864 106.359 210.946 106.096L212.194 102.211H213.855L215.068 106.017C215.162 106.31 215.255 106.62 215.349 106.948C215.566 107.733 215.736 108.372 215.859 108.864H215.955L216.21 107.915C216.386 107.259 216.574 106.635 216.773 106.043L218.038 102.211H219.568L216.667 111H215.138L212.976 104.549L210.911 111H209.381L206.481 102.211ZM223.539 97.2803H225.209V107.994C225.209 108.592 225.25 108.99 225.332 109.189C225.496 109.57 225.777 109.813 226.175 109.919L225.929 111C225.021 111.117 224.374 110.877 223.987 110.279C223.688 109.811 223.539 109.09 223.539 108.117V97.2803ZM236.483 102.984C236.794 103.295 237.037 103.688 237.213 104.162C237.394 104.631 237.485 105.126 237.485 105.647C237.485 106.169 237.427 106.781 237.309 107.484H231.192C231.321 108.193 231.608 108.753 232.054 109.163C232.499 109.567 233.129 109.77 233.943 109.77C235.033 109.77 236.032 109.57 236.94 109.172L237.221 110.429C236.618 110.78 235.757 111.012 234.638 111.123C234.327 111.158 233.923 111.176 233.425 111.176C232.927 111.176 232.405 111.076 231.86 110.877C231.315 110.678 230.864 110.385 230.507 109.998C229.798 109.23 229.443 108.105 229.443 106.623C229.443 105.322 229.868 104.232 230.718 103.354C231.579 102.475 232.654 102.035 233.943 102.035C235.004 102.035 235.85 102.352 236.483 102.984ZM235.894 106.192L235.929 105.718C235.929 104.646 235.528 103.934 234.725 103.582C234.456 103.465 234.134 103.406 233.759 103.406C233.384 103.406 233.038 103.479 232.721 103.626C232.411 103.772 232.141 103.972 231.913 104.224C231.444 104.739 231.18 105.396 231.122 106.192H235.894ZM248.136 110.165C247.31 110.839 246.313 111.176 245.147 111.176C243.888 111.176 242.871 110.76 242.098 109.928C241.342 109.119 240.964 108.07 240.964 106.781C240.964 105.381 241.515 104.227 242.616 103.318C243.665 102.463 244.942 102.035 246.448 102.035C247.04 102.035 247.556 102.079 247.995 102.167V97.2803H249.665V111H248.391L248.136 110.165ZM247.995 103.652C247.38 103.512 246.814 103.441 246.299 103.441C245.783 103.441 245.303 103.515 244.857 103.661C244.412 103.808 244.025 104.019 243.697 104.294C242.988 104.892 242.634 105.686 242.634 106.676C242.634 107.543 242.862 108.267 243.319 108.847C243.806 109.462 244.453 109.77 245.262 109.77C246.176 109.77 246.932 109.541 247.529 109.084C247.717 108.938 247.872 108.768 247.995 108.574V103.652ZM256.352 107.37C256.071 107.704 255.93 108.018 255.93 108.311C255.93 108.598 256.029 108.803 256.229 108.926C256.434 109.049 256.7 109.148 257.029 109.225C257.363 109.301 257.74 109.365 258.162 109.418C258.59 109.465 259.024 109.518 259.463 109.576C259.903 109.635 260.333 109.711 260.755 109.805C261.183 109.893 261.564 110.016 261.898 110.174C262.63 110.537 262.996 111.059 262.996 111.738C262.996 112.77 262.536 113.631 261.616 114.322C260.749 114.961 259.744 115.28 258.602 115.28C257.524 115.28 256.604 115.069 255.842 114.647C254.957 114.155 254.515 113.464 254.515 112.573C254.515 112.011 254.732 111.451 255.165 110.895C255.294 110.73 255.429 110.584 255.57 110.455C254.72 110.127 254.295 109.603 254.295 108.882C254.295 107.962 254.682 107.159 255.455 106.474C255.186 106.058 255.051 105.604 255.051 105.111C255.051 104.613 255.154 104.177 255.359 103.802C255.57 103.421 255.848 103.102 256.194 102.844C256.903 102.305 257.749 102.035 258.734 102.035C259.724 102.035 260.562 102.305 261.247 102.844C261.634 102.475 262.238 102.223 263.058 102.088C263.298 102.053 263.527 102.035 263.743 102.035L263.673 103.397C262.976 103.474 262.44 103.611 262.065 103.811C262.264 104.197 262.363 104.613 262.363 105.059C262.363 105.504 262.258 105.914 262.047 106.289C261.842 106.664 261.567 106.98 261.221 107.238C260.512 107.766 259.689 108.029 258.751 108.029C257.82 108.029 257.02 107.81 256.352 107.37ZM256.774 104.285C256.662 104.496 256.607 104.742 256.607 105.023C256.607 105.305 256.662 105.554 256.774 105.771C256.891 105.981 257.049 106.16 257.248 106.307C257.641 106.588 258.145 106.729 258.76 106.729C259.674 106.729 260.301 106.418 260.641 105.797C260.752 105.592 260.808 105.349 260.808 105.067C260.808 104.786 260.749 104.537 260.632 104.32C260.521 104.104 260.365 103.922 260.166 103.775C259.774 103.488 259.27 103.345 258.654 103.345C257.74 103.345 257.113 103.658 256.774 104.285ZM256.791 110.771C256.387 111.217 256.185 111.747 256.185 112.362C256.185 112.86 256.475 113.25 257.055 113.531C257.541 113.76 258.019 113.874 258.488 113.874C258.956 113.874 259.343 113.842 259.648 113.777C259.952 113.719 260.228 113.622 260.474 113.487C261.042 113.183 261.326 112.755 261.326 112.204C261.326 111.683 260.822 111.334 259.815 111.158C259.381 111.082 258.851 111.015 258.224 110.956C257.603 110.892 257.125 110.83 256.791 110.771Z" fill="black"/>
<path d="M72.7145 273.375H82.0045V274.852H74.3404V278.209H81.1695V279.686H74.3404V284.344H82.1803V285.82H72.7145V273.375ZM88.7 281.347L85.4305 277.031H87.3025L89.6932 280.213L92.0662 277.031H93.8416L90.5721 281.382L93.9295 285.82H92.0574L89.5789 282.516L87.118 285.82H85.3426L88.7 281.347ZM101.434 285.996C100.719 285.996 100.051 285.932 99.4297 285.803V289.925H97.7598V277.031H99.0342L99.2803 277.875C100.112 277.195 101.111 276.855 102.277 276.855C103.543 276.855 104.56 277.254 105.327 278.051C106.083 278.842 106.461 279.879 106.461 281.162C106.461 282.598 105.98 283.767 105.02 284.669C104.082 285.554 102.887 285.996 101.434 285.996ZM99.4297 284.3C100.256 284.493 100.947 284.59 101.504 284.59C102.061 284.59 102.538 284.514 102.937 284.361C103.335 284.203 103.672 283.98 103.947 283.693C104.51 283.107 104.791 282.299 104.791 281.268C104.791 280.4 104.563 279.691 104.105 279.141C103.619 278.555 102.972 278.262 102.163 278.262C101.237 278.262 100.479 278.49 99.8867 278.947C99.6992 279.1 99.5469 279.272 99.4297 279.466V284.3ZM116.98 277.805C117.29 278.115 117.533 278.508 117.709 278.982C117.891 279.451 117.982 279.946 117.982 280.468C117.982 280.989 117.923 281.602 117.806 282.305H111.689C111.818 283.014 112.105 283.573 112.55 283.983C112.995 284.388 113.625 284.59 114.44 284.59C115.529 284.59 116.529 284.391 117.437 283.992L117.718 285.249C117.114 285.601 116.253 285.832 115.134 285.943C114.823 285.979 114.419 285.996 113.921 285.996C113.423 285.996 112.902 285.896 112.357 285.697C111.812 285.498 111.361 285.205 111.003 284.818C110.294 284.051 109.94 282.926 109.94 281.443C109.94 280.143 110.364 279.053 111.214 278.174C112.075 277.295 113.151 276.855 114.44 276.855C115.5 276.855 116.347 277.172 116.98 277.805ZM116.391 281.013L116.426 280.538C116.426 279.466 116.025 278.754 115.222 278.402C114.952 278.285 114.63 278.227 114.255 278.227C113.88 278.227 113.534 278.3 113.218 278.446C112.907 278.593 112.638 278.792 112.409 279.044C111.941 279.56 111.677 280.216 111.618 281.013H116.391ZM127.288 278.868C126.93 278.657 126.564 278.552 126.189 278.552C125.82 278.552 125.512 278.646 125.266 278.833C125.026 279.021 124.815 279.258 124.633 279.545C124.276 280.096 124.036 280.74 123.913 281.479V285.82H122.243V277.031H123.622L123.904 278.64C124.355 277.813 124.932 277.266 125.635 276.996C125.887 276.902 126.116 276.855 126.321 276.855C126.532 276.855 126.687 276.861 126.787 276.873C126.886 276.879 126.983 276.891 127.077 276.908C127.264 276.955 127.46 277.025 127.665 277.119L127.288 278.868ZM133.438 273.419C133.438 273.747 133.338 274.011 133.139 274.21C132.94 274.409 132.676 274.509 132.348 274.509C132.02 274.509 131.756 274.409 131.557 274.21C131.358 274.011 131.258 273.747 131.258 273.419C131.258 273.091 131.358 272.83 131.557 272.637C131.756 272.438 132.02 272.338 132.348 272.338C132.676 272.338 132.94 272.438 133.139 272.637C133.338 272.83 133.438 273.091 133.438 273.419ZM131.513 277.031H133.183V285.82H131.513V277.031ZM144.475 277.805C144.786 278.115 145.029 278.508 145.205 278.982C145.387 279.451 145.477 279.946 145.477 280.468C145.477 280.989 145.419 281.602 145.302 282.305H139.184C139.313 283.014 139.6 283.573 140.046 283.983C140.491 284.388 141.121 284.59 141.935 284.59C143.025 284.59 144.024 284.391 144.932 283.992L145.214 285.249C144.61 285.601 143.749 285.832 142.63 285.943C142.319 285.979 141.915 285.996 141.417 285.996C140.919 285.996 140.397 285.896 139.852 285.697C139.307 285.498 138.856 285.205 138.499 284.818C137.79 284.051 137.435 282.926 137.435 281.443C137.435 280.143 137.86 279.053 138.71 278.174C139.571 277.295 140.646 276.855 141.935 276.855C142.996 276.855 143.843 277.172 144.475 277.805ZM143.887 281.013L143.922 280.538C143.922 279.466 143.52 278.754 142.718 278.402C142.448 278.285 142.126 278.227 141.751 278.227C141.376 278.227 141.03 278.3 140.714 278.446C140.403 278.593 140.134 278.792 139.905 279.044C139.436 279.56 139.173 280.216 139.114 281.013H143.887ZM151.268 277.901C152.188 277.204 153.242 276.855 154.432 276.855C157.104 276.855 158.439 278.323 158.439 281.259V285.82H156.77V281.364C156.77 280.351 156.594 279.598 156.242 279.105C155.85 278.543 155.208 278.262 154.317 278.262C153.362 278.262 152.562 278.496 151.918 278.965C151.707 279.111 151.537 279.281 151.408 279.475V285.82H149.738V277.031H151.013L151.268 277.901ZM169.776 283.939L170.083 285.179C169.351 285.724 168.273 285.996 166.849 285.996C165.489 285.996 164.423 285.58 163.65 284.748C162.894 283.939 162.516 282.838 162.516 281.443C162.516 280.143 162.941 279.053 163.79 278.174C164.652 277.295 165.727 276.855 167.016 276.855C168.176 276.855 169.119 277.122 169.846 277.655L169.266 278.965C168.604 278.473 167.801 278.227 166.858 278.227C166.049 278.227 165.396 278.537 164.898 279.158C164.423 279.744 164.186 280.471 164.186 281.338C164.186 282.27 164.435 283.037 164.933 283.641C165.454 284.273 166.172 284.59 167.086 284.59C168 284.59 168.897 284.373 169.776 283.939ZM180.057 277.805C180.368 278.115 180.611 278.508 180.787 278.982C180.968 279.451 181.059 279.946 181.059 280.468C181.059 280.989 181 281.602 180.883 282.305H174.766C174.895 283.014 175.182 283.573 175.627 283.983C176.073 284.388 176.703 284.59 177.517 284.59C178.607 284.59 179.606 284.391 180.514 283.992L180.795 285.249C180.192 285.601 179.33 285.832 178.211 285.943C177.901 285.979 177.496 285.996 176.998 285.996C176.5 285.996 175.979 285.896 175.434 285.697C174.889 285.498 174.438 285.205 174.08 284.818C173.371 284.051 173.017 282.926 173.017 281.443C173.017 280.143 173.442 279.053 174.291 278.174C175.153 277.295 176.228 276.855 177.517 276.855C178.578 276.855 179.424 277.172 180.057 277.805ZM179.468 281.013L179.503 280.538C179.503 279.466 179.102 278.754 178.299 278.402C178.03 278.285 177.707 278.227 177.332 278.227C176.957 278.227 176.612 278.3 176.295 278.446C175.985 278.593 175.715 278.792 175.487 279.044C175.018 279.56 174.754 280.216 174.696 281.013H179.468Z" fill="black"/>
<path d="M128.876 257.44L122.744 251.579L119.424 252.119L114.336 248.498C114.162 248.891 113.955 249.271 113.69 249.626C113.425 249.98 113.116 250.288 112.786 250.57L117.874 254.191L118.357 257.438L125.952 261.346L128.876 257.44ZM111.481 243.123L104.307 238.018C103.415 237.383 102.153 237.589 101.488 238.477L99.0799 241.693C98.4146 242.582 98.5985 243.816 99.4907 244.451L106.665 249.557C108.449 250.826 110.973 250.415 112.303 248.639C113.633 246.862 113.265 244.393 111.481 243.123Z" fill="black"/>
<path d="M60.8477 7.50391L56.4531 9.98828L55.8203 8.10156L60.8477 5.40625H63.0156V22H60.8477V7.50391ZM73.2883 22.1523C72.8508 22.1523 72.4992 22.0195 72.2336 21.7539C71.968 21.4883 71.8352 21.1367 71.8352 20.6992C71.8352 20.2617 71.968 19.9141 72.2336 19.6562C72.4992 19.3906 72.8508 19.2578 73.2883 19.2578C73.7258 19.2578 74.0773 19.3906 74.343 19.6562C74.6086 19.9141 74.7414 20.2617 74.7414 20.6992C74.7414 21.1367 74.6086 21.4883 74.343 21.7539C74.0773 22.0195 73.7258 22.1523 73.2883 22.1523ZM97.6469 10.5156C97.6469 12.9766 96.5141 14.6758 94.2484 15.6133L97.4008 22H94.8813L92.0336 16.2227C91.2602 16.3398 90.4516 16.3984 89.6078 16.3984H85.2953V22H83.1273V5.40625H89.9359C92.3891 5.40625 94.2211 5.74219 95.432 6.41406C96.9086 7.22656 97.6469 8.59375 97.6469 10.5156ZM89.9008 14.4297C91.6508 14.4297 92.9477 14.1875 93.7914 13.7031C94.8305 13.1016 95.35 12.0859 95.35 10.6562C95.35 8.79688 94.1469 7.74219 91.7406 7.49219C91.0453 7.41406 90.3305 7.375 89.5961 7.375H85.2953V14.4297H89.9008ZM108.177 19.9023C107.365 19.1602 106.72 18.2773 106.244 17.2539C105.775 16.2305 105.541 15.1992 105.541 14.1602C105.541 13.1211 105.646 12.2227 105.857 11.4648C106.076 10.6992 106.384 9.99609 106.783 9.35547C107.181 8.70703 107.658 8.125 108.213 7.60938C108.767 7.09375 109.384 6.65625 110.064 6.29688C111.486 5.54688 113.037 5.17188 114.716 5.17188C116.326 5.17188 117.826 5.53125 119.216 6.25C120.568 6.95312 121.646 7.92969 122.451 9.17969C123.271 10.4844 123.681 11.9336 123.681 13.5273C123.681 16.0508 122.791 18.1406 121.009 19.7969C119.892 20.8359 118.545 21.5508 116.966 21.9414C116.177 22.1367 115.263 22.2344 114.224 22.2344C113.185 22.2344 112.123 22.0312 111.037 21.625C109.951 21.2109 108.998 20.6367 108.177 19.9023ZM109.783 8.94531C109.181 9.51562 108.705 10.1914 108.353 10.9727C108.009 11.7539 107.838 12.6133 107.838 13.5508C107.838 14.4883 108.017 15.3672 108.377 16.1875C108.736 17.0078 109.228 17.7227 109.853 18.332C111.189 19.6367 112.81 20.2891 114.716 20.2891C116.568 20.2891 118.138 19.6797 119.427 18.4609C120.732 17.2266 121.384 15.6992 121.384 13.8789C121.384 12.6445 121.072 11.5 120.447 10.4453C119.861 9.44531 119.037 8.64062 117.974 8.03125C116.927 7.42188 115.857 7.11719 114.763 7.11719C113.67 7.11719 112.716 7.28125 111.904 7.60938C111.099 7.92969 110.392 8.375 109.783 8.94531ZM145.661 8.85156C144.364 7.69531 142.696 7.11719 140.657 7.11719C138.805 7.11719 137.235 7.72656 135.946 8.94531C134.641 10.1719 133.989 11.6992 133.989 13.5273C133.989 15.418 134.661 17.0195 136.005 18.332C137.341 19.6367 138.962 20.2891 140.868 20.2891C142.251 20.2891 143.63 19.9375 145.005 19.2344C145.411 19.0312 145.762 18.8086 146.059 18.5664L146.903 20.1836C145.755 21.168 144.274 21.8047 142.462 22.0938C141.876 22.1875 141.274 22.2344 140.657 22.2344C139.43 22.2344 138.274 22.0312 137.188 21.625C136.102 21.2109 135.149 20.6367 134.329 19.9023C133.516 19.1602 132.872 18.2773 132.395 17.2539C131.927 16.2305 131.692 15.1992 131.692 14.1602C131.692 13.1211 131.798 12.2227 132.009 11.4648C132.227 10.6992 132.536 9.99609 132.934 9.35547C133.333 8.70703 133.809 8.125 134.364 7.60938C134.919 7.09375 135.536 6.65625 136.216 6.29688C137.637 5.54688 139.188 5.17188 140.868 5.17188C143.141 5.17188 145.102 5.82031 146.751 7.11719L145.661 8.85156ZM154.527 5.40625H156.754V13.668L165.367 5.40625H168.168L159.145 14.0078L168.555 22H165.133L156.754 14.6758V22H154.527V5.40625Z" fill="black"/>
<g clip-path="url(#clip1)">
<path d="M472.803 115.332C471.882 114.738 471.09 114.367 469.811 113.913C467.788 113.195 466.787 112.727 465.512 111.891C464.159 111.009 463.952 110.948 462.265 110.852C461.614 110.82 460.685 110.708 460.19 110.618C458.55 110.29 457.227 110.14 456.033 110.157C454.714 110.172 453.731 110.114 452.286 109.92C451.201 109.773 450.296 109.854 449.142 110.214C447.842 110.617 443.8 112.301 443.503 112.568C443.242 112.804 442.543 113.061 440.965 113.536C440.601 113.648 440.042 113.906 439.726 114.123C439.405 114.326 438.502 114.839 437.712 115.238C436.232 115.996 435.487 116.428 432.58 118.156C430.265 119.524 429.721 119.781 428.616 119.98C426.54 120.35 424.386 121.163 422.476 122.309C420.474 123.502 419.587 123.806 416.59 124.315C415.674 124.469 414.629 124.701 414.256 124.842C413.381 125.166 412.074 125.901 411.194 126.571C409.958 127.51 409.551 127.753 408.865 127.939C407.52 128.308 406.6 128.843 405.417 129.938C404.613 130.676 402.186 133.927 400.443 136.582C399.193 138.465 397.567 140.812 392.456 148.074C387.445 155.202 386.34 156.926 385.649 158.795C384.943 160.7 384.695 161.109 382.152 164.703C380.881 166.5 379.735 168.205 379.617 168.477C379.492 168.757 379.363 169.231 379.314 169.542C379.256 169.977 379.106 170.33 378.633 171.094C377.907 172.274 377.786 172.719 377.567 175.104C377.316 177.663 377.368 178.027 378.327 179.907C379.05 181.331 379.58 182.657 380.42 185.112C381.113 187.141 381.536 188.214 382.325 189.908C382.642 190.575 383.054 191.663 383.242 192.315C383.513 193.215 383.689 193.638 384.01 194.075C384.25 194.394 384.943 195.481 385.552 196.494C387.669 200.007 390.108 202.712 392.393 204.079C393.084 204.491 393.734 204.976 394.815 205.864C396.672 207.39 398.233 208.427 399.425 208.921C400.795 209.479 401.548 209.959 405.342 212.675C409.183 215.426 410.653 216.395 412.419 217.364C413.895 218.175 414.75 218.499 415.634 218.577C416.033 218.608 416.592 218.745 416.884 218.882C417.339 219.082 420.24 220.98 422.509 222.557C423.203 223.04 423.217 223.04 426.873 223.965C431.976 225.249 431.928 225.237 435.413 227.314C439.194 229.578 440.41 230.172 442.825 230.95C443.361 231.118 443.884 231.322 443.992 231.403C444.1 231.484 444.51 231.557 444.911 231.565C445.313 231.574 446.105 231.7 446.678 231.837C447.251 231.973 448.187 232.114 448.771 232.142C450.29 232.217 453.7 232.133 456.102 231.948C459.197 231.721 459.455 231.658 460.393 230.892C460.731 230.609 461.295 230.286 461.749 230.112C462.438 229.847 462.61 229.731 463.332 228.99C464.15 228.157 464.161 228.142 465.584 227.611C465.79 227.543 466.221 227.248 466.55 226.958C467.165 226.417 468.259 225.837 469.806 225.234C472.209 224.294 473.502 223.014 477.646 217.519C480.409 213.856 480.291 214.071 480.74 212.056C480.981 210.979 481.219 208.795 481.222 207.586C481.226 207.147 481.267 206.131 481.326 205.336C481.436 203.662 481.357 202.695 480.916 200.609C480.528 198.737 480.389 197.679 480.305 195.964C480.147 192.878 480.229 188.378 480.47 187.208C480.55 186.837 480.586 186.224 480.554 185.852C480.405 183.809 480.398 183.838 481.842 181.111C483.088 178.783 483.51 177.841 483.83 176.602C483.964 176.121 484.287 175.256 484.561 174.681C485.106 173.517 485.255 172.941 485.303 171.709C485.335 170.837 485.409 170.38 485.834 168.359C486.168 166.781 486.209 166.707 487.085 166.081C487.596 165.717 487.853 165.467 487.904 165.284C487.952 165.145 487.925 164.334 487.847 163.496C487.65 161.348 487.667 161.081 488.173 159.48C488.291 159.115 488.382 158.427 488.394 157.958C488.397 157.484 488.532 156.606 488.686 156.023C488.845 155.433 489.056 154.472 489.171 153.884C489.396 152.679 489.529 152.312 489.839 151.916C490.405 151.233 491.091 147.299 491.402 142.982C491.625 139.82 491.609 139.087 491.278 138.269C490.575 136.535 488.995 133.621 487.917 132.107C487.275 131.197 486.773 130.136 486.078 128.221C485.011 125.26 484.097 124.054 480.869 121.389C479.565 120.31 473.714 115.92 472.803 115.332Z" fill="black"/>
</g>
<path d="M472.599 90.6509C473.689 91.354 474.796 91.8169 475.921 92.0396C476.302 92.1157 476.689 92.1538 477.081 92.1538C477.474 92.1538 477.878 92.1187 478.294 92.0483C478.716 91.9722 479.088 91.8491 479.41 91.6792C480.137 91.2925 480.5 90.6978 480.5 89.895C480.5 89.0688 479.891 88.4917 478.672 88.1636C478.315 88.0698 477.934 87.9849 477.529 87.9087L476.273 87.689C474.673 87.4136 473.557 87.0093 472.924 86.4761C472.338 85.9897 472.045 85.3335 472.045 84.5073C472.045 83.3823 472.584 82.4712 473.662 81.7739C474.623 81.147 475.757 80.8335 477.064 80.8335C478.317 80.8335 479.445 81.0386 480.447 81.4487C480.805 81.5894 481.177 81.7651 481.564 81.9761L480.966 83.4087C480.116 82.8989 479.114 82.5679 477.96 82.4155C477.597 82.3628 477.245 82.3364 476.905 82.3364C476.126 82.3364 475.438 82.4858 474.84 82.7847C474.143 83.1362 473.794 83.6226 473.794 84.2437C473.794 84.8999 474.236 85.3804 475.121 85.6851C475.52 85.8257 475.971 85.9399 476.475 86.0278L478.039 86.3003C479.357 86.5464 480.272 86.8247 480.781 87.1353C481.291 87.4458 481.666 87.7944 481.906 88.1812C482.152 88.562 482.275 89.0718 482.275 89.7104C482.275 90.3433 482.126 90.9116 481.827 91.4155C481.528 91.9194 481.13 92.3354 480.632 92.6636C479.659 93.314 478.42 93.6392 476.914 93.6392C475.508 93.6392 474.187 93.3345 472.95 92.7251C472.546 92.5259 472.171 92.2974 471.825 92.0396L472.599 90.6509ZM486.888 79.7349H488.558V88.5327L492.504 84.6655H494.455L490.324 88.7085L492.785 91.3628C493.307 91.9136 493.928 92.2153 494.649 92.2681L494.394 93.4546C493.509 93.5776 492.788 93.4136 492.232 92.9624C492.062 92.8218 491.895 92.6606 491.731 92.479L488.558 89.0513V93.4546H486.888V79.7349ZM500.386 81.0532C500.386 81.3813 500.287 81.645 500.087 81.8442C499.888 82.0435 499.624 82.1431 499.296 82.1431C498.968 82.1431 498.705 82.0435 498.505 81.8442C498.306 81.645 498.207 81.3813 498.207 81.0532C498.207 80.7251 498.306 80.4644 498.505 80.271C498.705 80.0718 498.968 79.9722 499.296 79.9722C499.624 79.9722 499.888 80.0718 500.087 80.271C500.287 80.4644 500.386 80.7251 500.386 81.0532ZM498.461 84.6655H500.131V93.4546H498.461V84.6655ZM505.166 79.7349H506.836V90.4487C506.836 91.0464 506.877 91.4448 506.959 91.644C507.123 92.0249 507.404 92.2681 507.802 92.3735L507.556 93.4546C506.648 93.5718 506.001 93.3315 505.614 92.7339C505.315 92.2651 505.166 91.5444 505.166 90.5718V79.7349ZM511.852 79.7349H513.522V90.4487C513.522 91.0464 513.563 91.4448 513.645 91.644C513.809 92.0249 514.091 92.2681 514.489 92.3735L514.243 93.4546C513.335 93.5718 512.687 93.3315 512.301 92.7339C512.002 92.2651 511.852 91.5444 511.852 90.5718V79.7349Z" fill="black"/>
<g clip-path="url(#clip2)">
<path d="M456.151 54.4799C450.919 55.1058 446.386 55.0532 441.929 54.316C438.414 53.737 437.016 53.7614 433.395 54.4853C429.87 55.1954 428.981 55.2948 426.945 55.2326C425.823 55.2028 423.276 55.0308 421.159 54.8517C413.637 54.2053 412.656 54.1978 408.847 54.7466C406.678 55.0621 406.035 55.0902 404.559 54.9301C404.257 54.8995 404.119 55.0086 404.307 55.1427C404.381 55.1959 408.256 57.8015 410.544 59.3462C410.753 59.4809 411.231 59.8051 411.611 60.0612C411.992 60.3172 412.47 60.6415 412.679 60.7762C412.886 60.9169 414.495 61.9988 416.252 63.1871C418.009 64.3755 419.618 65.4574 419.825 65.5981C420.034 65.7328 420.512 66.0571 420.893 66.3131C421.273 66.5692 421.751 66.8934 421.96 67.0281C422.168 67.1689 423.777 68.2508 425.533 69.4391C427.29 70.6274 428.899 71.7093 429.106 71.8501C429.316 71.9848 429.794 72.309 430.174 72.5651C430.555 72.8211 431.033 73.1454 431.242 73.2801C431.449 73.4208 433.058 74.5027 434.815 75.6911C436.572 76.8794 438.181 77.9613 438.388 78.102C439.052 78.546 440.073 79.2311 440.694 79.6534C441.031 79.8734 442.28 80.7203 443.475 81.5207L445.648 82.9845L447.107 82.6398C453.671 81.0777 458.629 79.2004 461.303 77.2564C461.587 77.0548 462.227 76.4651 462.736 75.9456C464.296 74.3574 465.32 73.5667 466.598 72.9877C467.498 72.5709 468.235 72.3772 469.218 72.2967C470.272 72.214 471.797 72.1929 472.089 72.2539C472.357 72.3205 472.357 72.3205 472.42 72.7321C472.566 73.6379 472.953 73.8962 473.982 73.7636C474.76 73.6592 475.575 73.3836 477.775 72.4908C479.48 71.7878 479.855 71.6727 480.706 71.5805C482.381 71.3933 486.9 70.1828 488.931 69.3819C489.633 69.1074 490.582 68.5504 490.638 68.392C490.665 68.3128 490.583 68.284 490.096 68.1686C489.22 67.965 478.01 64.0335 475.801 63.1591C470.064 60.8875 465.269 58.8151 462.469 57.3921C460.781 56.5357 460.233 56.2485 459.785 56.0029C459.504 55.85 459.146 55.6499 458.979 55.5573C458.819 55.4669 458.315 55.1748 457.876 54.9049C457.429 54.6327 457.047 54.4033 457.019 54.4005C456.987 54.3894 456.604 54.4264 456.151 54.4799Z" fill="black"/>
</g>
<path d="M366.924 20.0312L371.319 16.2344C374.178 13.7422 375.608 11.75 375.608 10.2578C375.608 9.17188 375.315 8.38281 374.729 7.89062C374.151 7.39062 373.256 7.14062 372.045 7.14062C371.061 7.14062 369.877 7.41406 368.495 7.96094C368.151 8.09375 367.881 8.21094 367.686 8.3125L367.088 6.44922C368.143 5.91016 369.455 5.52344 371.026 5.28906C371.526 5.21094 372.084 5.17188 372.702 5.17188C373.319 5.17188 373.963 5.28516 374.635 5.51172C375.315 5.73828 375.897 6.0625 376.381 6.48438C377.397 7.36719 377.905 8.57812 377.905 10.1172C377.905 12.2188 376.424 14.5156 373.463 17.0078L369.971 19.9492L378.338 19.9375V22H366.924V20.0312ZM387.943 22.1523C387.505 22.1523 387.154 22.0195 386.888 21.7539C386.623 21.4883 386.49 21.1367 386.49 20.6992C386.49 20.2617 386.623 19.9141 386.888 19.6562C387.154 19.3906 387.505 19.2578 387.943 19.2578C388.38 19.2578 388.732 19.3906 388.998 19.6562C389.263 19.9141 389.396 20.2617 389.396 20.6992C389.396 21.1367 389.263 21.4883 388.998 21.7539C388.732 22.0195 388.38 22.1523 387.943 22.1523ZM412.302 10.5156C412.302 12.9766 411.169 14.6758 408.903 15.6133L412.055 22H409.536L406.688 16.2227C405.915 16.3398 405.106 16.3984 404.262 16.3984H399.95V22H397.782V5.40625H404.591C407.044 5.40625 408.876 5.74219 410.087 6.41406C411.563 7.22656 412.302 8.59375 412.302 10.5156ZM404.555 14.4297C406.305 14.4297 407.602 14.1875 408.446 13.7031C409.485 13.1016 410.005 12.0859 410.005 10.6562C410.005 8.79688 408.802 7.74219 406.395 7.49219C405.7 7.41406 404.985 7.375 404.251 7.375H399.95V14.4297H404.555ZM422.832 19.9023C422.02 19.1602 421.375 18.2773 420.898 17.2539C420.43 16.2305 420.195 15.1992 420.195 14.1602C420.195 13.1211 420.301 12.2227 420.512 11.4648C420.73 10.6992 421.039 9.99609 421.438 9.35547C421.836 8.70703 422.312 8.125 422.867 7.60938C423.422 7.09375 424.039 6.65625 424.719 6.29688C426.141 5.54688 427.691 5.17188 429.371 5.17188C430.98 5.17188 432.48 5.53125 433.871 6.25C435.223 6.95312 436.301 7.92969 437.105 9.17969C437.926 10.4844 438.336 11.9336 438.336 13.5273C438.336 16.0508 437.445 18.1406 435.664 19.7969C434.547 20.8359 433.199 21.5508 431.621 21.9414C430.832 22.1367 429.918 22.2344 428.879 22.2344C427.84 22.2344 426.777 22.0312 425.691 21.625C424.605 21.2109 423.652 20.6367 422.832 19.9023ZM424.438 8.94531C423.836 9.51562 423.359 10.1914 423.008 10.9727C422.664 11.7539 422.492 12.6133 422.492 13.5508C422.492 14.4883 422.672 15.3672 423.031 16.1875C423.391 17.0078 423.883 17.7227 424.508 18.332C425.844 19.6367 427.465 20.2891 429.371 20.2891C431.223 20.2891 432.793 19.6797 434.082 18.4609C435.387 17.2266 436.039 15.6992 436.039 13.8789C436.039 12.6445 435.727 11.5 435.102 10.4453C434.516 9.44531 433.691 8.64062 432.629 8.03125C431.582 7.42188 430.512 7.11719 429.418 7.11719C428.324 7.11719 427.371 7.28125 426.559 7.60938C425.754 7.92969 425.047 8.375 424.438 8.94531ZM446.534 5.40625H448.702V13.9961C448.702 17.0117 449.706 18.9609 451.714 19.8438C452.402 20.1406 453.214 20.2891 454.152 20.2891C455.089 20.2891 455.886 20.1523 456.542 19.8789C457.206 19.6055 457.753 19.2109 458.183 18.6953C459.019 17.7031 459.437 16.2539 459.437 14.3477V5.40625H461.605V13.9961C461.605 17.9727 460.171 20.5312 457.304 21.6719C456.351 22.0469 455.249 22.2344 453.999 22.2344C452.749 22.2344 451.659 22.0547 450.73 21.6953C449.808 21.3281 449.038 20.8047 448.421 20.125C447.163 18.75 446.534 16.8242 446.534 14.3477V5.40625ZM470.963 18.2383C470.596 17.6133 470.311 16.9375 470.108 16.2109C469.905 15.4766 469.803 14.6914 469.803 13.8555C469.803 13.0195 469.909 12.2227 470.12 11.4648C470.338 10.6992 470.647 9.99609 471.045 9.35547C471.444 8.70703 471.92 8.125 472.475 7.60938C473.03 7.09375 473.647 6.65625 474.327 6.29688C475.748 5.54688 477.299 5.17188 478.979 5.17188C481.448 5.17188 483.491 5.85938 485.108 7.23438L483.889 8.89844C482.522 7.71094 480.815 7.11719 478.768 7.11719C476.916 7.11719 475.346 7.72656 474.057 8.94531C472.752 10.1719 472.1 11.6992 472.1 13.5273C472.1 15.5195 472.745 17.1445 474.034 18.4023C475.315 19.6602 476.952 20.2891 478.944 20.2891C480.452 20.2891 481.799 19.8477 482.987 18.9648C483.323 18.7148 483.608 18.4531 483.842 18.1797V16.3867H478.088V14.418H486.01V22H483.842V20.3945C482.952 21.1992 481.76 21.7578 480.268 22.0703C479.721 22.1797 479.084 22.2344 478.358 22.2344C477.631 22.2344 476.893 22.1445 476.143 21.9648C475.393 21.7773 474.698 21.5117 474.057 21.168C473.416 20.8164 472.83 20.3945 472.299 19.9023C471.776 19.4102 471.33 18.8555 470.963 18.2383ZM495.123 5.40625H497.291V14.418H507.474V5.40625H509.642V22H507.474V16.3867H497.291V22H495.123V5.40625Z" fill="black"/>
<g clip-path="url(#clip3)">
<path d="M827.305 82H727.694C726.562 82 725.487 82.5664 724.864 83.5293L696.566 125.217C695.745 126.463 695.83 128.105 696.764 129.238L774.868 225.754C776.226 227.425 778.773 227.425 780.131 225.754L858.236 129.238C859.169 128.077 859.254 126.463 858.434 125.217L830.163 83.5293C829.512 82.5664 828.465 82 827.305 82ZM821.844 95.5938L839.757 122.781H820.4L805.77 95.5938H821.844ZM764.652 95.5938H790.319L804.949 122.781H750.05L764.652 95.5938ZM733.156 95.5938H749.229L734.599 122.781H715.243L733.156 95.5938ZM720.987 136.375H735.533L754.861 181.688L720.987 136.375ZM750.107 136.375H804.893L777.5 205.278L750.107 136.375ZM800.139 181.688L819.438 136.375H833.984L800.139 181.688Z" fill="black"/>
</g>
<path d="M682.023 12.4609C682.984 12.5078 683.741 12.5312 684.296 12.5312C684.851 12.5312 685.382 12.4805 685.89 12.3789C686.398 12.2773 686.847 12.1133 687.238 11.8867C688.105 11.3867 688.538 10.6328 688.538 9.625C688.538 8.79688 688.183 8.16406 687.472 7.72656C686.839 7.33594 686.038 7.14062 685.07 7.14062C683.976 7.14062 682.827 7.35938 681.624 7.79688C681.273 7.92969 680.968 8.0625 680.71 8.19531L680.113 6.33203C681.144 5.81641 682.468 5.46094 684.085 5.26562C684.562 5.20313 685.077 5.17188 685.632 5.17188C686.195 5.17188 686.8 5.26562 687.448 5.45312C688.105 5.63281 688.683 5.90625 689.183 6.27344C690.284 7.07031 690.835 8.14062 690.835 9.48438C690.835 10.75 690.323 11.7852 689.3 12.5898C688.956 12.8555 688.558 13.0664 688.105 13.2227L688.093 13.3281C690.28 13.8984 691.374 15.2031 691.374 17.2422C691.374 18.7578 690.683 19.9883 689.3 20.9336C688.034 21.8008 686.546 22.2344 684.835 22.2344C682.593 22.2344 680.784 21.8086 679.409 20.957L680.03 19.0117C681.03 19.5898 682.277 19.9766 683.769 20.1719C684.245 20.2344 684.718 20.2656 685.187 20.2656C685.655 20.2656 686.12 20.2031 686.581 20.0781C687.05 19.9531 687.464 19.7695 687.823 19.5273C688.628 18.9883 689.03 18.2617 689.03 17.3477C689.03 16.207 688.339 15.3906 686.956 14.8984C685.675 14.4531 684.03 14.3477 682.023 14.582V12.4609ZM701.084 22.1523C700.647 22.1523 700.295 22.0195 700.03 21.7539C699.764 21.4883 699.631 21.1367 699.631 20.6992C699.631 20.2617 699.764 19.9141 700.03 19.6562C700.295 19.3906 700.647 19.2578 701.084 19.2578C701.522 19.2578 701.873 19.3906 702.139 19.6562C702.405 19.9141 702.538 20.2617 702.538 20.6992C702.538 21.1367 702.405 21.4883 702.139 21.7539C701.873 22.0195 701.522 22.1523 701.084 22.1523ZM715.095 20.2891C717.291 20.2891 718.388 18.8984 718.388 16.1172V5.40625H720.556V15.8828C720.556 18.9453 719.498 20.9141 717.38 21.7891C716.662 22.0859 715.865 22.2344 714.99 22.2344C714.123 22.2344 713.377 22.0781 712.752 21.7656C712.134 21.4531 711.611 21.0312 711.181 20.5C710.275 19.4062 709.822 18.0586 709.822 16.457L711.931 16.1641C711.931 17.2891 712.197 18.2344 712.728 19C713.314 19.8594 714.103 20.2891 715.095 20.2891ZM729.669 5.40625H742.055V7.375H731.837V11.8516H740.942V13.8203H731.837V20.0312H742.29V22H729.669V5.40625ZM748.918 5.40625H751.438C753.875 11.4609 755.164 14.668 755.305 15.0273C755.625 15.9023 755.836 16.4961 755.938 16.8086C755.938 16.8086 756.035 17.0859 756.23 17.6406H756.336C756.438 17.2734 756.547 16.8984 756.664 16.5156C756.664 16.5156 756.797 16.1016 757.062 15.2734C757.211 14.8203 757.375 14.3477 757.555 13.8555L760.59 5.40625H761.258L764.387 13.6797L765.734 17.6406H765.84L766.672 14.9688C766.82 14.5 766.973 14.0586 767.129 13.6445L770.117 5.40625H772.637L766.098 22.2344H765.43L761.867 12.8359C761.766 12.5859 761.664 12.3008 761.562 11.9805L760.93 10.0469H760.859L760.555 11.0664C760.469 11.3555 760.375 11.6562 760.273 11.9688L756.594 22.2344H755.926L748.918 5.40625ZM780.144 5.40625H792.53V7.375H782.312V11.8516H791.417V13.8203H782.312V20.0312H792.765V22H780.144V5.40625ZM800.998 5.40625H803.166V20.0312H812.213V22H800.998V5.40625ZM834.474 10.5156C834.474 12.9766 833.341 14.6758 831.076 15.6133L834.228 22H831.709L828.861 16.2227C828.088 16.3398 827.279 16.3984 826.435 16.3984H822.123V22H819.955V5.40625H826.763C829.216 5.40625 831.048 5.74219 832.259 6.41406C833.736 7.22656 834.474 8.59375 834.474 10.5156ZM826.728 14.4297C828.478 14.4297 829.775 14.1875 830.619 13.7031C831.658 13.1016 832.177 12.0859 832.177 10.6562C832.177 8.79688 830.974 7.74219 828.568 7.49219C827.873 7.41406 827.158 7.375 826.423 7.375H822.123V14.4297H826.728ZM847.313 14.9219L841.196 5.40625H843.575L848.415 12.9883L853.22 5.40625H855.458L849.481 14.8867V22H847.313V14.9219Z" fill="black"/>
<path d="M325.084 302.07L334.073 291.406H336.241V302.047H339.522V304.016H336.241V308H334.073V304.016H325.717L325.084 302.07ZM334.073 302.047V294.043L327.487 302.047H334.073ZM348.67 308.152C348.232 308.152 347.88 308.02 347.615 307.754C347.349 307.488 347.216 307.137 347.216 306.699C347.216 306.262 347.349 305.914 347.615 305.656C347.88 305.391 348.232 305.258 348.67 305.258C349.107 305.258 349.459 305.391 349.724 305.656C349.99 305.914 350.123 306.262 350.123 306.699C350.123 307.137 349.99 307.488 349.724 307.754C349.459 308.02 349.107 308.152 348.67 308.152ZM363.372 293.375H357.137V291.406H371.774V293.375H365.54V308H363.372V293.375ZM381.613 305.902C380.801 305.16 380.156 304.277 379.68 303.254C379.211 302.23 378.977 301.199 378.977 300.16C378.977 299.121 379.082 298.223 379.293 297.465C379.512 296.699 379.82 295.996 380.219 295.355C380.617 294.707 381.094 294.125 381.648 293.609C382.203 293.094 382.82 292.656 383.5 292.297C384.922 291.547 386.473 291.172 388.152 291.172C389.762 291.172 391.262 291.531 392.652 292.25C394.004 292.953 395.082 293.93 395.887 295.18C396.707 296.484 397.117 297.934 397.117 299.527C397.117 302.051 396.227 304.141 394.445 305.797C393.328 306.836 391.98 307.551 390.402 307.941C389.613 308.137 388.699 308.234 387.66 308.234C386.621 308.234 385.559 308.031 384.473 307.625C383.387 307.211 382.434 306.637 381.613 305.902ZM383.219 294.945C382.617 295.516 382.141 296.191 381.789 296.973C381.445 297.754 381.273 298.613 381.273 299.551C381.273 300.488 381.453 301.367 381.812 302.188C382.172 303.008 382.664 303.723 383.289 304.332C384.625 305.637 386.246 306.289 388.152 306.289C390.004 306.289 391.574 305.68 392.863 304.461C394.168 303.227 394.82 301.699 394.82 299.879C394.82 298.645 394.508 297.5 393.883 296.445C393.297 295.445 392.473 294.641 391.41 294.031C390.363 293.422 389.293 293.117 388.199 293.117C387.105 293.117 386.152 293.281 385.34 293.609C384.535 293.93 383.828 294.375 383.219 294.945ZM417.78 304.262C419.233 305.199 420.709 305.816 422.209 306.113C422.717 306.215 423.233 306.266 423.756 306.266C424.28 306.266 424.819 306.219 425.373 306.125C425.936 306.023 426.432 305.859 426.862 305.633C427.83 305.117 428.315 304.324 428.315 303.254C428.315 302.152 427.502 301.383 425.877 300.945C425.401 300.82 424.893 300.707 424.354 300.605L422.678 300.312C420.545 299.945 419.057 299.406 418.213 298.695C417.432 298.047 417.041 297.172 417.041 296.07C417.041 294.57 417.76 293.355 419.198 292.426C420.479 291.59 421.991 291.172 423.733 291.172C425.405 291.172 426.909 291.445 428.245 291.992C428.721 292.18 429.217 292.414 429.733 292.695L428.936 294.605C427.803 293.926 426.467 293.484 424.928 293.281C424.444 293.211 423.975 293.176 423.522 293.176C422.483 293.176 421.565 293.375 420.768 293.773C419.838 294.242 419.373 294.891 419.373 295.719C419.373 296.594 419.963 297.234 421.143 297.641C421.674 297.828 422.276 297.98 422.948 298.098L425.034 298.461C426.791 298.789 428.01 299.16 428.69 299.574C429.37 299.988 429.87 300.453 430.19 300.969C430.518 301.477 430.682 302.156 430.682 303.008C430.682 303.852 430.483 304.609 430.084 305.281C429.686 305.953 429.155 306.508 428.491 306.945C427.194 307.812 425.541 308.246 423.534 308.246C421.659 308.246 419.897 307.84 418.248 307.027C417.709 306.762 417.209 306.457 416.748 306.113L417.78 304.262ZM441.318 305.902C440.505 305.16 439.861 304.277 439.384 303.254C438.916 302.23 438.681 301.199 438.681 300.16C438.681 299.121 438.787 298.223 438.998 297.465C439.216 296.699 439.525 295.996 439.923 295.355C440.322 294.707 440.798 294.125 441.353 293.609C441.908 293.094 442.525 292.656 443.205 292.297C444.627 291.547 446.177 291.172 447.857 291.172C449.466 291.172 450.966 291.531 452.357 292.25C453.709 292.953 454.787 293.93 455.591 295.18C456.412 296.484 456.822 297.934 456.822 299.527C456.822 302.051 455.931 304.141 454.15 305.797C453.033 306.836 451.685 307.551 450.107 307.941C449.318 308.137 448.404 308.234 447.365 308.234C446.326 308.234 445.263 308.031 444.177 307.625C443.091 307.211 442.138 306.637 441.318 305.902ZM442.923 294.945C442.322 295.516 441.845 296.191 441.494 296.973C441.15 297.754 440.978 298.613 440.978 299.551C440.978 300.488 441.158 301.367 441.517 302.188C441.877 303.008 442.369 303.723 442.994 304.332C444.33 305.637 445.951 306.289 447.857 306.289C449.709 306.289 451.279 305.68 452.568 304.461C453.873 303.227 454.525 301.699 454.525 299.879C454.525 298.645 454.213 297.5 453.588 296.445C453.002 295.445 452.177 294.641 451.115 294.031C450.068 293.422 448.998 293.117 447.904 293.117C446.81 293.117 445.857 293.281 445.045 293.609C444.24 293.93 443.533 294.375 442.923 294.945ZM478.802 294.852C477.505 293.695 475.837 293.117 473.798 293.117C471.946 293.117 470.376 293.727 469.087 294.945C467.782 296.172 467.13 297.699 467.13 299.527C467.13 301.418 467.802 303.02 469.145 304.332C470.481 305.637 472.102 306.289 474.009 306.289C475.391 306.289 476.77 305.938 478.145 305.234C478.552 305.031 478.903 304.809 479.2 304.566L480.044 306.184C478.895 307.168 477.415 307.805 475.602 308.094C475.016 308.188 474.415 308.234 473.798 308.234C472.571 308.234 471.415 308.031 470.329 307.625C469.243 307.211 468.29 306.637 467.47 305.902C466.657 305.16 466.013 304.277 465.536 303.254C465.067 302.23 464.833 301.199 464.833 300.16C464.833 299.121 464.938 298.223 465.149 297.465C465.368 296.699 465.677 295.996 466.075 295.355C466.473 294.707 466.95 294.125 467.505 293.609C468.059 293.094 468.677 292.656 469.356 292.297C470.778 291.547 472.329 291.172 474.009 291.172C476.282 291.172 478.243 291.82 479.891 293.117L478.802 294.852ZM487.668 291.406H489.836V308H487.668V291.406ZM498.96 291.406H511.347V293.375H501.128V297.852H510.234V299.82H501.128V306.031H511.581V308H498.96V291.406ZM524.678 293.375H518.444V291.406H533.08V293.375H526.846V308H524.678V293.375ZM545.228 300.922L539.111 291.406H541.49L546.33 298.988L551.134 291.406H553.373L547.396 300.887V308H545.228V300.922Z" fill="black"/>
<path d="M315 121L251 147.177L315 174" stroke="black"/>
<path d="M628 121L564 147.177L628 174" stroke="black"/>
<g clip-path="url(#clip4)">
<path d="M431.686 359.703H446.314C451.714 359.703 456.892 361.839 460.711 365.64C464.529 369.442 466.674 374.598 466.674 379.974V396.021H411.326V379.974C411.326 374.598 413.471 369.442 417.289 365.64C421.108 361.839 426.286 359.703 431.686 359.703Z" fill="black"/>
<path d="M455.691 340.708C457.269 331.525 451.072 322.806 441.848 321.235C432.625 319.663 423.868 325.834 422.29 335.018C420.711 344.201 426.909 352.92 436.133 354.491C445.356 356.063 454.113 349.892 455.691 340.708Z" fill="black"/>
<path d="M431.686 530.687H446.314C451.714 530.687 456.892 532.822 460.711 536.624C464.529 540.425 466.674 545.581 466.674 550.958V567.005H411.326V550.953C411.328 545.578 413.473 540.423 417.291 536.622C421.109 532.822 426.287 530.687 431.686 530.687Z" fill="black"/>
<path d="M446.168 524.144C454.645 520.199 458.305 510.158 454.343 501.718C450.381 493.277 440.297 489.632 431.819 493.577C423.342 497.522 419.682 507.563 423.644 516.003C427.606 524.444 437.69 528.089 446.168 524.144Z" fill="black"/>
<path d="M516.012 448.296H530.641C536.04 448.296 541.219 450.432 545.037 454.233C548.855 458.035 551 463.191 551 468.567V484.614H495.653V468.567C495.653 463.191 497.798 458.035 501.616 454.233C505.434 450.432 510.612 448.296 516.012 448.296Z" fill="black"/>
<path d="M523.324 443.333C532.682 443.333 540.268 435.78 540.268 426.463C540.268 417.146 532.682 409.593 523.324 409.593C513.967 409.593 506.381 417.146 506.381 426.463C506.381 435.78 513.967 443.333 523.324 443.333Z" fill="black"/>
<path d="M513.981 491.384C509.438 501.197 502.986 510.016 494.998 517.33C487.01 524.644 477.644 530.308 467.442 533.994C469.652 536.708 471.311 539.823 472.327 543.167C484.258 538.64 495.118 531.702 504.223 522.79C513.328 513.878 520.481 503.185 525.23 491.384H513.981Z" fill="black"/>
<path d="M372.774 411.195C380.853 399.641 391.79 390.36 404.527 384.247V379.974C404.525 377.463 404.876 374.964 405.569 372.55C389.04 379.194 374.79 390.452 364.536 404.97C367.706 406.421 370.518 408.545 372.774 411.195Z" fill="black"/>
<path d="M473.469 379.974V383.514C486.501 389.427 497.753 398.632 506.107 410.215C508.504 407.692 511.43 405.726 514.677 404.456C504.068 389.652 489.292 378.308 472.215 371.857C473.048 374.482 473.471 377.22 473.469 379.974Z" fill="black"/>
<path d="M410.926 533.546C390.859 525.936 374.584 510.801 365.593 491.384H354.357C359.01 502.949 365.973 513.454 374.823 522.261C383.673 531.069 394.226 537.997 405.843 542.626C406.932 539.3 408.658 536.217 410.926 533.546Z" fill="black"/>
<path d="M347.359 448.296H361.988C367.388 448.296 372.566 450.432 376.384 454.233C380.202 458.035 382.347 463.191 382.347 468.567V484.614H327V468.567C327 463.191 329.145 458.035 332.963 454.233C336.781 450.432 341.96 448.296 347.359 448.296Z" fill="black"/>
<path d="M354.671 443.333C364.029 443.333 371.615 435.78 371.615 426.463C371.615 417.146 364.029 409.593 354.671 409.593C345.314 409.593 337.728 417.146 337.728 426.463C337.728 435.78 345.314 443.333 354.671 443.333Z" fill="black"/>
<path d="M458.773 421.626H419.223C419 421.626 418.781 421.682 418.585 421.787C418.389 421.892 418.222 422.045 418.099 422.23L406.864 438.697C406.705 438.936 406.628 439.219 406.642 439.505C406.657 439.791 406.763 440.064 406.945 440.286L437.955 478.411C438.082 478.566 438.241 478.69 438.422 478.776C438.602 478.861 438.8 478.906 439 478.906C439.2 478.906 439.398 478.861 439.578 478.776C439.759 478.69 439.919 478.566 440.045 478.411L471.056 440.286C471.237 440.064 471.342 439.79 471.355 439.504C471.369 439.218 471.291 438.936 471.132 438.697L459.896 422.23C459.774 422.045 459.607 421.892 459.411 421.787C459.215 421.682 458.996 421.626 458.773 421.626ZM456.597 426.996L463.707 437.735H456.022L450.216 426.996H456.597ZM433.888 426.996H444.081L449.887 437.735H428.09L433.888 426.996ZM421.385 426.996H427.767L421.955 437.735H414.27L421.385 426.996ZM416.553 443.105H422.328L430 461.004L416.553 443.105ZM428.113 443.105H449.856L438.98 470.325L428.122 443.105H428.113ZM447.977 461.004L455.64 443.105H461.415L447.977 461.004Z" fill="#040000"/>
</g>
<path d="M775 268V459H592" stroke="black"/>
<path d="M282 459H129V311" stroke="black"/>
<defs>
<clipPath id="clip0">
<rect width="225" height="179" fill="white" transform="translate(0 62)"/>
</clipPath>
<clipPath id="clip1">
<rect width="110.564" height="119.358" fill="white" transform="translate(436.399 88.0762) rotate(36.7402)"/>
</clipPath>
<clipPath id="clip2">
<rect width="86.0566" height="41.3072" fill="white" transform="translate(411.846 33) rotate(19.2636)"/>
</clipPath>
<clipPath id="clip3">
<rect width="163" height="145" fill="white" transform="translate(696 82)"/>
</clipPath>
<clipPath id="clip4">
<rect width="224" height="246" fill="white" transform="translate(327 321)"/>
</clipPath>
</defs>
</svg>
