<svg id="contents" xmlns="http://www.w3.org/2000/svg" viewBox="0 0 498.41 549.74"><defs><style>.cls-1{fill:#040000;}</style></defs><path d="M232.93,86.49h32.55a45.3,45.3,0,0,1,45.3,45.3v35.86a0,0,0,0,1,0,0H187.63a0,0,0,0,1,0,0V131.79A45.3,45.3,0,0,1,232.93,86.49Z"/><circle cx="400.84" cy="162.82" r="37.7" transform="translate(21.09 405.32) rotate(-80.29)"/><path d="M232.93,468.59h32.55a45.3,45.3,0,0,1,45.3,45.3v35.86a0,0,0,0,1,0,0H187.63a0,0,0,0,1,0,0V513.88A45.3,45.3,0,0,1,232.93,468.59Z"/><circle cx="400.84" cy="544.92" r="37.7" transform="translate(-344.67 95.87) rotate(-25.05)"/><path d="M420.56,284.47h32.55a45.3,45.3,0,0,1,45.3,45.3v35.86a0,0,0,0,1,0,0H375.26a0,0,0,0,1,0,0V329.77A45.3,45.3,0,0,1,420.56,284.47Z"/><circle cx="436.83" cy="235.68" r="37.7"/><path d="M567.68,505.89a182.6,182.6,0,0,1-103.55,95.22A60.31,60.31,0,0,1,475,621.61,205.73,205.73,0,0,0,592.71,505.89Z" transform="translate(-151.64 -125.13)"/><path d="M253.49,326.69a182.79,182.79,0,0,1,70.65-60.22v-9.55a60.22,60.22,0,0,1,2.32-16.59,205.79,205.79,0,0,0-91.3,72.45A53.09,53.09,0,0,1,253.49,326.69Z" transform="translate(-151.64 -125.13)"/><path d="M477.54,256.92v7.91a182.66,182.66,0,0,1,72.62,59.67,52.89,52.89,0,0,1,19.07-12.87,205.73,205.73,0,0,0-94.48-72.85A60.11,60.11,0,0,1,477.54,256.92Z" transform="translate(-151.64 -125.13)"/><path d="M338.38,600.11a182.67,182.67,0,0,1-100.87-94.22h-25A205.76,205.76,0,0,0,327.07,620.4,60.39,60.39,0,0,1,338.38,600.11Z" transform="translate(-151.64 -125.13)"/><path d="M45.3,284.47H77.85a45.3,45.3,0,0,1,45.3,45.3v35.86a0,0,0,0,1,0,0H0a0,0,0,0,1,0,0V329.77A45.3,45.3,0,0,1,45.3,284.47Z"/><circle cx="61.57" cy="235.68" r="37.7"/><path class="cls-1" d="M444.84,350h-88a3,3,0,0,0-2.5,1.35l-25,36.8a3,3,0,0,0,.18,3.55l69,85.2a3,3,0,0,0,4.65,0l69-85.2a3,3,0,0,0,.17-3.55l-25-36.8A3,3,0,0,0,444.84,350ZM440,362l15.82,24h-17.1l-12.92-24Zm-50.53,0h22.68l12.92,24h-48.5Zm-27.82,0h14.2l-12.93,24h-17.1Zm-10.75,36h12.85l17.07,40Zm25.72,0H425l-24.2,60.83L376.64,398Zm44.2,40,17.05-40h12.85Z" transform="translate(-151.64 -125.13)"/></svg>